<svg width="64" height="34" viewBox="0 0 64 34" fill="none" xmlns="http://www.w3.org/2000/svg">
<path d="M0.632 33.856C0.632 33.744 0.72 33.68 0.896 33.664L2.96 33.352C3.264 33.304 3.48 33.232 3.608 33.136C3.736 33.024 3.8 32.872 3.8 32.68V1.792C3.8 1.568 3.736 1.4 3.608 1.288C3.48 1.176 3.272 1.096 2.984 1.048L0.848 0.711998C0.704 0.695999 0.632 0.639999 0.632 0.543999C0.632 0.495998 0.648 0.463998 0.68 0.447997C0.728 0.415998 0.784 0.399998 0.848 0.399998H12.464C15.36 0.399998 18 0.823997 20.384 1.672C22.784 2.504 24.848 3.728 26.576 5.344C28.32 6.944 29.664 8.896 30.608 11.2C31.552 13.504 32.024 16.112 32.024 19.024C32.024 22.176 31.304 24.872 29.864 27.112C28.44 29.336 26.448 31.04 23.888 32.224C21.328 33.408 18.344 34 14.936 34H0.848C0.784 34 0.728 33.984 0.68 33.952C0.648 33.92 0.632 33.888 0.632 33.856ZM14.936 33.568C16.856 33.568 18.568 33.04 20.072 31.984C21.592 30.912 22.784 29.256 23.648 27.016C24.528 24.76 24.968 21.848 24.968 18.28C24.968 15.464 24.68 12.976 24.104 10.816C23.544 8.64 22.72 6.816 21.632 5.344C20.544 3.856 19.232 2.736 17.696 1.984C16.16 1.216 14.424 0.831998 12.488 0.831998H10.52V32.68C10.52 32.952 10.6 33.168 10.76 33.328C10.92 33.488 11.144 33.568 11.432 33.568H14.936ZM39.8623 21.064H52.0783L52.1503 21.52H39.7422L39.8623 21.064ZM41.1583 33.856C41.1583 33.888 41.1423 33.92 41.1103 33.952C41.0783 33.984 41.0303 34 40.9663 34H33.3102C33.2622 34 33.2222 33.984 33.1902 33.952C33.1582 33.92 33.1422 33.888 33.1422 33.856C33.1422 33.792 33.1662 33.752 33.2142 33.736C33.2622 33.704 33.3022 33.68 33.3342 33.664L34.2463 33.4C34.7583 33.224 35.2703 32.856 35.7823 32.296C36.3103 31.736 36.7503 30.872 37.1023 29.704L44.8543 3.304C45.0463 2.68 45.0463 2.176 44.8543 1.792C44.6783 1.408 44.3503 1.112 43.8703 0.903998C43.6783 0.775998 43.5343 0.695998 43.4383 0.663999C43.3583 0.631999 43.3183 0.591999 43.3183 0.543999C43.3183 0.495998 43.3343 0.463998 43.3663 0.447997C43.4143 0.415998 43.4783 0.399998 43.5583 0.399998H52.8943C52.9583 0.399998 53.0063 0.415998 53.0383 0.447997C53.0703 0.463998 53.0863 0.495998 53.0863 0.543999C53.0863 0.591999 53.0463 0.639999 52.9663 0.688C52.9023 0.735998 52.7743 0.799997 52.5823 0.879997C52.1983 0.943998 51.9663 1.056 51.8863 1.216C51.8063 1.36 51.8303 1.648 51.9583 2.08L61.6302 32.416C61.7583 32.784 61.9423 33.064 62.1823 33.256C62.4223 33.448 62.7343 33.568 63.1183 33.616C63.2143 33.648 63.2783 33.68 63.3103 33.712C63.3583 33.744 63.3823 33.792 63.3823 33.856C63.3823 33.888 63.3583 33.92 63.3103 33.952C63.2783 33.984 63.2303 34 63.1663 34H52.5823C52.5183 34 52.4623 33.984 52.4143 33.952C52.3823 33.92 52.3663 33.888 52.3663 33.856C52.3663 33.792 52.3903 33.752 52.4383 33.736C52.4863 33.72 52.5583 33.696 52.6543 33.664L53.8063 33.472C54.1903 33.376 54.4303 33.224 54.5263 33.016C54.6223 32.808 54.6063 32.504 54.4783 32.104L45.2383 2.92L45.8143 1.672L37.5343 29.776C37.3423 30.432 37.3343 31 37.5103 31.48C37.7023 31.96 38.0303 32.36 38.4943 32.68C38.9583 33 39.5103 33.264 40.1503 33.472L40.9183 33.664C41.0143 33.68 41.0783 33.704 41.1103 33.736C41.1423 33.752 41.1583 33.792 41.1583 33.856Z" fill="#BE7C68"/>
</svg>
