<svg width="177" height="100" viewBox="0 0 177 100" fill="none" xmlns="http://www.w3.org/2000/svg">
<path d="M38.6198 54.79H41.6067V69.5H38.6198V54.79Z" fill="#707C84"/>
<path d="M43.339 64.46C43.337 63.4034 43.6472 62.37 44.2301 61.4905C44.8131 60.611 45.6428 59.9251 46.6141 59.5193C47.5854 59.1136 48.6547 59.0065 49.6867 59.2114C50.7186 59.4163 51.6669 59.9241 52.4114 60.6705C53.1559 61.4169 53.6633 62.3684 53.8692 63.4045C54.0752 64.4407 53.9705 65.5149 53.5684 66.4912C53.1663 67.4675 52.4848 68.3021 51.6103 68.8893C50.7358 69.4765 49.7075 69.79 48.6556 69.79C47.956 69.798 47.2619 69.6657 46.6139 69.4008C45.9659 69.1359 45.3771 68.7438 44.8819 68.2474C44.3868 67.7509 43.9952 67.1603 43.7303 66.5099C43.4654 65.8596 43.3323 65.1626 43.339 64.46ZM50.9654 64.46C50.9536 64.0039 50.8082 63.5614 50.5474 63.1878C50.2866 62.8143 49.9218 62.5263 49.4989 62.3598C49.0759 62.1934 48.6135 62.1559 48.1694 62.2521C47.7254 62.3483 47.3194 62.5739 47.0023 62.9006C46.6852 63.2273 46.4711 63.6407 46.3867 64.089C46.3023 64.5373 46.3514 65.0007 46.5279 65.4211C46.7043 65.8416 47.0003 66.2004 47.3787 66.4528C47.7572 66.7051 48.2013 66.8398 48.6556 66.84C48.9664 66.8487 49.2756 66.7927 49.5637 66.6754C49.8519 66.5581 50.1127 66.382 50.3297 66.1584C50.5468 65.9348 50.7153 65.6684 50.8247 65.3761C50.9341 65.0838 50.982 64.7718 50.9654 64.46Z" fill="#707C84"/>
<path d="M65.9793 59.42V69C65.9793 72.39 63.3409 73.82 60.6727 73.82C59.7344 73.8901 58.795 73.6995 57.9573 73.2691C57.1197 72.8387 56.4161 72.1852 55.9236 71.38L58.4923 69.89C58.6961 70.3026 59.0186 70.6443 59.418 70.8708C59.8174 71.0972 60.2753 71.198 60.7324 71.16C61.0332 71.2103 61.3415 71.1906 61.6335 71.1024C61.9255 71.0141 62.1934 70.8597 62.4166 70.651C62.6398 70.4423 62.8123 70.1849 62.9207 69.8986C63.0292 69.6124 63.0708 69.3049 63.0422 69V68.07C62.691 68.5039 62.243 68.8486 61.7345 69.0762C61.2259 69.3038 60.6712 69.4079 60.1151 69.38C58.7632 69.38 57.4666 68.8405 56.5106 67.8804C55.5546 66.9202 55.0176 65.6179 55.0176 64.26C55.0176 62.9021 55.5546 61.5998 56.5106 60.6396C57.4666 59.6794 58.7632 59.14 60.1151 59.14C60.6709 59.1145 61.2249 59.2196 61.733 59.447C62.2412 59.6745 62.6895 60.0179 63.0422 60.45V59.45L65.9793 59.42ZM63.0422 64.26C63.0621 63.7736 62.9367 63.2924 62.6821 62.8782C62.4275 62.464 62.0554 62.1358 61.6136 61.9357C61.1719 61.7356 60.6806 61.6728 60.203 61.7553C59.7254 61.8379 59.2833 62.062 58.9335 62.3989C58.5837 62.7358 58.3423 63.1701 58.2402 63.646C58.1381 64.1218 58.18 64.6174 58.3606 65.0691C58.5412 65.5208 58.8521 65.908 59.2535 66.1808C59.6549 66.4536 60.1283 66.5996 60.6129 66.6C60.9292 66.6225 61.2467 66.5781 61.545 66.4698C61.8432 66.3615 62.1155 66.1917 62.3444 65.9712C62.5732 65.7508 62.7536 65.4846 62.8738 65.1899C62.994 64.8951 63.0514 64.5784 63.0422 64.26Z" fill="#707C84"/>
<path d="M67.7017 64.46C67.6997 63.4034 68.0098 62.37 68.5928 61.4905C69.1758 60.611 70.0055 59.9251 70.9768 59.5193C71.9481 59.1136 73.0174 59.0065 74.0493 59.2114C75.0813 59.4163 76.0295 59.9241 76.7741 60.6705C77.5186 61.4169 78.026 62.3684 78.2319 63.4045C78.4379 64.4407 78.3331 65.5149 77.931 66.4912C77.5289 67.4675 76.8475 68.3021 75.973 68.8893C75.0985 69.4765 74.0702 69.79 73.0182 69.79C72.3187 69.798 71.6246 69.6657 70.9766 69.4008C70.3286 69.1359 69.7397 68.7438 69.2446 68.2474C68.7494 67.7509 68.3579 67.1603 68.093 66.5099C67.828 65.8596 67.695 65.1626 67.7017 64.46ZM75.3281 64.46C75.3163 64.0039 75.1709 63.5614 74.9101 63.1878C74.6492 62.8143 74.2845 62.5263 73.8616 62.3598C73.4386 62.1934 72.9762 62.1559 72.5321 62.2521C72.088 62.3483 71.6821 62.5739 71.365 62.9006C71.0479 63.2273 70.8338 63.6407 70.7494 64.089C70.665 64.5373 70.7141 65.0007 70.8905 65.4211C71.067 65.8416 71.3629 66.2004 71.7414 66.4528C72.1198 66.7051 72.564 66.8398 73.0182 66.84C73.3274 66.8459 73.6344 66.7878 73.9202 66.6692C74.206 66.5507 74.4644 66.3742 74.6793 66.1509C74.8941 65.9276 75.0609 65.6622 75.1691 65.3712C75.2773 65.0803 75.3246 64.7701 75.3081 64.46H75.3281Z" fill="#707C84"/>
<path d="M79.7187 56.72C79.7187 56.3601 79.825 56.0082 80.0241 55.7089C80.2232 55.4096 80.5062 55.1763 80.8373 55.0386C81.1684 54.9008 81.5327 54.8648 81.8842 54.935C82.2357 55.0052 82.5586 55.1786 82.812 55.4331C83.0654 55.6876 83.238 56.0119 83.3079 56.365C83.3778 56.718 83.3419 57.0839 83.2048 57.4165C83.0676 57.7491 82.8354 58.0333 82.5374 58.2333C82.2394 58.4333 81.8891 58.54 81.5307 58.54C81.0509 58.5374 80.5916 58.3448 80.2523 58.0041C79.913 57.6633 79.7213 57.2019 79.7187 56.72ZM80.0273 59.42H83.0142V69.5H80.0273V59.42Z" fill="#707C84"/>
<path d="M96.0368 64.46C96.073 65.1263 95.9777 65.7933 95.7562 66.4224C95.5348 67.0515 95.1916 67.6305 94.7465 68.1259C94.3014 68.6213 93.7631 69.0233 93.1627 69.3089C92.5623 69.5945 91.9115 69.7581 91.2479 69.79C90.6908 69.8169 90.1346 69.7207 89.6185 69.5081C89.1024 69.2956 88.6391 68.972 88.2611 68.56V73.56H85.2742V59.42H88.2611V60.37C88.6391 59.9581 89.1024 59.6344 89.6185 59.4219C90.1346 59.2094 90.6908 59.1132 91.2479 59.14C91.9106 59.172 92.5605 59.3352 93.1603 59.6202C93.76 59.9052 94.2979 60.3063 94.7428 60.8007C95.1878 61.295 95.5312 61.8727 95.7532 62.5007C95.9753 63.1287 96.0717 63.7945 96.0368 64.46ZM93.05 64.46C93.0381 63.9907 92.8895 63.5351 92.6225 63.1498C92.3554 62.7644 91.9817 62.4662 91.5476 62.292C91.1136 62.1179 90.6381 62.0754 90.1803 62.1699C89.7224 62.2644 89.3022 62.4918 88.9717 62.8237C88.6411 63.1557 88.4148 63.5778 88.3207 64.0377C88.2266 64.4976 88.2689 64.9751 88.4423 65.4111C88.6157 65.8471 88.9126 66.2224 89.2962 66.4906C89.6799 66.7588 90.1335 66.9081 90.6008 66.92C90.9269 66.9408 91.2536 66.8913 91.5591 66.7748C91.8646 66.6582 92.1417 66.4774 92.3718 66.2444C92.6019 66.0113 92.7797 65.7315 92.8933 65.4238C93.0068 65.116 93.0534 64.7874 93.0301 64.46H93.05Z" fill="#707C84"/>
<path d="M105.336 66.48C105.336 68.8 103.345 69.79 101.154 69.79C100.279 69.8678 99.4011 69.6808 98.6328 69.2531C97.8645 68.8254 97.2413 68.1765 96.8433 67.39L99.4518 65.9C99.5577 66.2638 99.7843 66.5802 100.094 66.7966C100.404 67.0131 100.778 67.1166 101.154 67.09C101.881 67.09 102.239 66.86 102.239 66.46C102.239 65.35 97.2614 65.94 97.2614 62.46C97.2614 60.26 99.1133 59.15 101.244 59.15C102.03 59.126 102.808 59.3136 103.498 59.6934C104.188 60.0732 104.764 60.6313 105.167 61.31L102.548 62.69C102.432 62.4259 102.243 62.2012 102.003 62.0432C101.762 61.8852 101.481 61.8007 101.194 61.8C100.676 61.8 100.358 62 100.358 62.37C100.398 63.52 105.336 62.75 105.336 66.48Z" fill="#707C84"/>
<path d="M116.327 59.42V69.5H113.341V68.56C112.993 68.9777 112.552 69.3069 112.054 69.5207C111.555 69.7344 111.014 69.8267 110.473 69.79C108.482 69.79 106.72 68.34 106.72 65.61V59.42H109.707V65.17C109.68 65.4151 109.709 65.6629 109.79 65.8956C109.871 66.1282 110.002 66.3398 110.175 66.5151C110.347 66.6903 110.557 66.8247 110.787 66.9086C111.018 66.9925 111.264 67.0237 111.509 67C112.604 67 113.37 66.36 113.37 64.93V59.42H116.327Z" fill="#707C84"/>
<path d="M133.591 63.3199V69.5H130.604V63.58C130.604 62.58 130.117 61.9199 129.161 61.9199C128.205 61.9199 127.588 62.6299 127.588 63.8199V69.5H124.601V63.58C124.601 62.58 124.123 61.9199 123.157 61.9199C122.192 61.9199 121.594 62.6299 121.594 63.8199V69.5H118.607V59.4199H121.594V60.3499C121.906 59.9392 122.316 59.6134 122.785 59.402C123.255 59.1907 123.769 59.1006 124.282 59.1399C124.797 59.1148 125.31 59.2241 125.771 59.4572C126.232 59.6903 126.624 60.0392 126.911 60.47C127.244 60.0196 127.685 59.6614 128.194 59.4288C128.702 59.1962 129.261 59.0968 129.818 59.1399C132.088 59.1399 133.591 60.7999 133.591 63.3199Z" fill="#707C84"/>
<path d="M136.14 59.36C137.372 59.36 138.37 58.3571 138.37 57.12C138.37 55.8829 137.372 54.88 136.14 54.88C134.908 54.88 133.91 55.8829 133.91 57.12C133.91 58.3571 134.908 59.36 136.14 59.36Z" fill="#707C84"/>
<path d="M72.4208 47.1601C78.1889 47.1601 82.8648 42.4635 82.8648 36.6701C82.8648 30.8766 78.1889 26.1801 72.4208 26.1801C66.6528 26.1801 61.9769 30.8766 61.9769 36.6701C61.9769 42.4635 66.6528 47.1601 72.4208 47.1601Z" fill="#707C84"/>
<path d="M95.768 47.1601C101.536 47.1601 106.212 42.4635 106.212 36.6701C106.212 30.8766 101.536 26.1801 95.768 26.1801C89.9999 26.1801 85.324 30.8766 85.324 36.6701C85.324 42.4635 89.9999 47.1601 95.768 47.1601Z" fill="#707C84"/>
<path d="M59.5177 26.1801H38.6397V47.1501H59.5177V26.1801Z" fill="#707C84"/>
</svg>
