<svg width="177" height="100" viewBox="0 0 177 100" fill="none" xmlns="http://www.w3.org/2000/svg">
<path d="M46.0272 41.39H48.0184V55.31H53.9921V57.31H46.0272V41.39ZM60.1947 41.39C61.3762 41.39 62.5312 41.7419 63.5135 42.4012C64.4959 43.0605 65.2616 43.9976 65.7137 45.0939C66.1658 46.1903 66.2841 47.3967 66.0536 48.5606C65.8231 49.7244 65.2542 50.7935 64.4188 51.6327C63.5833 52.4718 62.5189 53.0432 61.3601 53.2747C60.2014 53.5062 59.0002 53.3874 57.9087 52.9333C56.8172 52.4792 55.8842 51.7101 55.2278 50.7234C54.5714 49.7367 54.2211 48.5767 54.2211 47.39C54.2211 46.6021 54.3756 45.8219 54.6758 45.0939C54.976 44.366 55.416 43.7045 55.9707 43.1474C56.5254 42.5902 57.1839 42.1483 57.9087 41.8467C58.6335 41.5452 59.4103 41.39 60.1947 41.39ZM60.1947 51.39C60.9824 51.39 61.7523 51.1554 62.4073 50.7159C63.0622 50.2764 63.5726 49.6517 63.874 48.9207C64.1755 48.1898 64.2543 47.3856 64.1007 46.6096C63.947 45.8337 63.5677 45.121 63.0107 44.5616C62.4538 44.0022 61.7442 43.6212 60.9717 43.4669C60.1991 43.3125 59.3984 43.3917 58.6707 43.6945C57.943 43.9972 57.321 44.5099 56.8834 45.1677C56.4458 45.8255 56.2123 46.5989 56.2123 47.39C56.2175 48.4474 56.6394 49.4597 57.3857 50.2055C58.132 50.9513 59.142 51.37 60.1947 51.37V51.39ZM56.2123 55.33H64.1772V57.33H56.2123V55.33ZM81.7 57.33H79.7087V55.9C78.4246 56.8028 76.8955 57.288 75.328 57.29C73.9914 57.299 72.6741 56.97 71.4973 56.3333C70.3205 55.6966 69.3223 54.7726 68.5944 53.6466C67.8665 52.5206 67.4325 51.2287 67.3323 49.89C67.232 48.5512 67.4689 47.2087 68.0209 45.986C68.573 44.7633 69.4226 43.6999 70.4913 42.8936C71.56 42.0873 72.8136 41.5641 74.1365 41.3723C75.4595 41.1804 76.8092 41.3261 78.0613 41.7958C79.3135 42.2655 80.4279 43.0441 81.3017 44.06L79.8382 45.37C79.1735 44.6236 78.3335 44.0562 77.3946 43.7195C76.4557 43.3827 75.4478 43.2874 74.4628 43.4421C73.4778 43.5967 72.5471 43.9966 71.7553 44.6051C70.9636 45.2137 70.3361 46.0116 69.93 46.9261C69.5239 47.8406 69.3522 48.8426 69.4304 49.8409C69.5087 50.8392 69.8344 51.8019 70.378 52.6413C70.9215 53.4808 71.6656 54.1702 72.5424 54.6468C73.4192 55.1234 74.4008 55.372 75.3977 55.37C76.2251 55.3717 77.0431 55.1939 77.7957 54.8487C78.5484 54.5035 79.2179 53.9991 79.7585 53.37H74.3822V51.37H81.7199L81.7 57.33ZM89.0277 41.43C90.2091 41.43 91.3641 41.7819 92.3465 42.4412C93.3288 43.1005 94.0945 44.0376 94.5466 45.1339C94.9988 46.2303 95.1171 47.4367 94.8866 48.6006C94.6561 49.7644 94.0871 50.8335 93.2517 51.6727C92.4163 52.5118 91.3519 53.0832 90.1931 53.3147C89.0343 53.5462 87.8332 53.4274 86.7416 52.9733C85.6501 52.5192 84.7171 51.7501 84.0607 50.7634C83.4043 49.7767 83.054 48.6167 83.054 47.43C83.0487 46.637 83.2 45.8509 83.4991 45.117C83.7982 44.3831 84.2392 43.716 84.7965 43.1544C85.3539 42.5927 86.0165 42.1476 86.7462 41.8448C87.4759 41.5419 88.2581 41.3873 89.0476 41.39L89.0277 41.43ZM89.0277 51.43C89.8153 51.43 90.5853 51.1954 91.2402 50.7559C91.8951 50.3164 92.4055 49.6917 92.707 48.9607C93.0084 48.2298 93.0873 47.4256 92.9336 46.6497C92.7799 45.8737 92.4006 45.161 91.8437 44.6016C91.2867 44.0422 90.5771 43.6612 89.8046 43.5069C89.0321 43.3525 88.2313 43.4317 87.5036 43.7345C86.776 44.0372 86.154 44.5499 85.7164 45.2077C85.2788 45.8655 85.0452 46.6389 85.0452 47.43C85.0609 48.4839 85.4902 49.489 86.2396 50.2268C86.9891 50.9646 87.9982 51.3754 89.0476 51.37L89.0277 51.43ZM85.0452 55.37H93.0101V57.37H85.0452V55.37ZM97.122 41.39H99.1132V57.29H97.122V41.39ZM101.871 41.39H103.862C103.965 41.3791 104.068 41.3791 104.171 41.39C105.005 41.2991 105.849 41.3857 106.647 41.644C107.445 41.9024 108.181 42.3267 108.805 42.8894C109.429 43.4521 109.929 44.1406 110.27 44.91C110.612 45.6794 110.789 46.5125 110.789 47.355C110.789 48.1975 110.612 49.0306 110.27 49.8C109.929 50.5694 109.429 51.2579 108.805 51.8206C108.181 52.3833 107.445 52.8076 106.647 53.066C105.849 53.3243 105.005 53.4109 104.171 53.32H103.862V57.32H101.871V41.39ZM103.862 43.39V51.3H104.171C104.733 51.3752 105.305 51.3289 105.848 51.1641C106.392 50.9992 106.893 50.7198 107.32 50.3443C107.747 49.9689 108.089 49.5062 108.323 48.9872C108.558 48.4682 108.679 47.9049 108.679 47.335C108.679 46.7651 108.558 46.2018 108.323 45.6828C108.089 45.1638 107.747 44.7011 107.32 44.3257C106.893 43.9503 106.392 43.6708 105.848 43.506C105.305 43.3411 104.733 43.2948 104.171 43.37C104.062 43.3813 103.956 43.4048 103.852 43.44L103.862 43.39ZM118.209 42.54L116.736 43.71C116.481 43.4432 116.157 43.2548 115.799 43.167C115.442 43.0792 115.068 43.0956 114.719 43.2143C114.371 43.3329 114.064 43.549 113.834 43.8369C113.604 44.1249 113.46 44.4729 113.42 44.84V45C113.42 45.88 114.027 46.47 115.212 46.55C119.772 46.83 121.863 48.98 121.863 51.82V52C121.745 53.124 121.309 54.1905 120.605 55.0724C119.901 55.9544 118.96 56.6148 117.893 56.975C116.827 57.3353 115.68 57.3802 114.588 57.1046C113.497 56.8289 112.508 56.2442 111.738 55.42L113.261 54.24C113.615 54.6217 114.048 54.9213 114.53 55.1182C115.011 55.315 115.529 55.4044 116.049 55.38C117.008 55.4308 117.949 55.1075 118.676 54.4777C119.403 53.8478 119.86 52.9602 119.951 52V51.86C119.951 49.19 117.343 48.7 115.083 48.48C112.992 48.28 111.489 46.97 111.489 45.08V45C111.562 44.016 112.009 43.098 112.738 42.4356C113.466 41.7731 114.419 41.4167 115.401 41.44C115.922 41.4246 116.44 41.5189 116.922 41.717C117.404 41.9151 117.839 42.2125 118.199 42.59L118.209 42.54ZM129.659 55.26C132.138 55.26 134.099 52.57 134.099 49.26V41.26H136.09V49.26C136.09 53.66 133.223 57.21 129.698 57.21C126.174 57.21 123.307 53.66 123.307 49.26V41.26H125.298V49.26C125.218 52.62 127.18 55.31 129.649 55.31L129.659 55.26ZM151.373 57.26H149.382V47.36L144.792 53.36L140.202 47.36V57.29H138.211V41.39L144.782 50.08L151.353 41.39L151.373 57.26Z" fill="#707C84"/>
<path d="M36.4693 39.0001C36.4693 37.5573 35.8987 36.1736 34.8829 35.1534C33.8672 34.1332 32.4896 33.5601 31.0532 33.5601C29.6167 33.5601 28.2391 34.1332 27.2234 35.1534C26.2077 36.1736 25.637 37.5573 25.637 39.0001V55.4501L30.0974 58.6601V66.4801H32.0089V58.6601L36.4693 55.4501V39.0001ZM34.5577 48.2001L32.0089 50.7601V48.3601L34.5577 45.8001V48.2001ZM27.5884 45.8001L30.1372 48.3601V50.7601L27.5884 48.2001V45.8001ZM34.5577 43.0801L31.0532 46.6001L27.5486 43.0001V40.6001L31.0532 44.1201L34.5577 40.6001V43.0801ZM31.0532 35.4801C31.8239 35.4835 32.5723 35.7406 33.1837 36.212C33.7951 36.6834 34.2358 37.3431 34.4382 38.0901L31.0532 41.4801L27.6681 38.0901C27.8632 37.3357 28.3007 36.667 28.9127 36.1879C29.5248 35.7087 30.2772 35.4459 31.0532 35.4401V35.4801ZM27.5486 54.4801V50.8801L30.0974 53.4401V56.3001L27.5486 54.4801ZM32.0089 56.3101V53.4401L34.5577 50.8801V54.4701L32.0089 56.3101Z" fill="#707C84"/>
</svg>
