<svg width="177" height="100" viewBox="0 0 177 100" fill="none" xmlns="http://www.w3.org/2000/svg">
<path d="M53.4942 45.71C53.8527 45.71 53.9721 45.84 53.9721 46.19V54.11H58.0243C58.3727 54.11 58.5022 54.24 58.5022 54.59V55.29C58.5022 55.64 58.3727 55.77 58.0243 55.77H52.6878C52.3393 55.77 52.2 55.64 52.2 55.29V46.19C52.2 45.84 52.3393 45.71 52.6878 45.71H53.4942Z" fill="#707C84"/>
<path d="M62.0366 49.2C62.0366 46.89 63.4902 45.5 66.0191 45.5C68.5479 45.5 70.0015 46.89 70.0015 49.2V52.28C70.0015 54.59 68.538 55.98 66.0191 55.98C63.5002 55.98 62.0366 54.59 62.0366 52.28V49.2ZM68.3289 49.2C68.3289 47.9 67.5224 47.2 66.0689 47.2C64.6153 47.2 63.8188 47.91 63.8188 49.2V52.3C63.8188 53.61 64.6153 54.3 66.0689 54.3C67.5224 54.3 68.3289 53.58 68.3289 52.3V49.2Z" fill="#707C84"/>
<path d="M81.8593 50.26C82.2476 50.26 82.3372 50.39 82.3372 50.74V52.64C82.3477 53.0875 82.2584 53.5317 82.0758 53.9401C81.8932 54.3485 81.6219 54.7106 81.2818 55C80.4372 55.6755 79.3723 56.0106 78.295 55.94C75.7163 55.94 74.3125 54.55 74.3125 52.24V49.14C74.3125 46.86 75.7661 45.46 78.295 45.46C80.2862 45.46 81.5805 46.25 82.1281 47.83C82.1587 47.8893 82.1751 47.9551 82.1761 48.0219C82.177 48.0888 82.1623 48.1549 82.1333 48.2151C82.1044 48.2753 82.0618 48.3279 82.009 48.3686C81.9563 48.4094 81.8948 48.4372 81.8294 48.45L81.0528 48.72C80.7143 48.84 80.5749 48.77 80.4555 48.42C80.2905 47.9928 79.9886 47.6331 79.5973 47.3977C79.206 47.1622 78.7477 47.0645 78.295 47.12C76.8314 47.12 76.0349 47.83 76.0349 49.12V52.3C76.0349 53.61 76.8414 54.3 78.295 54.3C79.7486 54.3 80.6446 53.63 80.6446 52.65V51.91H78.4841C78.1257 51.91 77.9963 51.77 77.9963 51.42V50.74C77.9963 50.39 78.1257 50.26 78.4841 50.26H81.8593Z" fill="#707C84"/>
<path d="M86.449 49.2C86.449 46.89 87.9026 45.5 90.4315 45.5C92.9604 45.5 94.4139 46.89 94.4139 49.2V52.28C94.4139 54.59 92.9504 55.98 90.4315 55.98C87.9126 55.98 86.449 54.59 86.449 52.28V49.2ZM92.7314 49.2C92.7314 47.9 91.9249 47.2 90.4813 47.2C89.0376 47.2 88.2212 47.91 88.2212 49.2V52.3C88.2212 53.61 89.0277 54.3 90.4813 54.3C91.9349 54.3 92.7314 53.58 92.7314 52.3V49.2Z" fill="#707C84"/>
<path d="M99.1033 46C99.1033 45.78 99.173 45.71 99.392 45.71H99.85C100.069 45.71 100.119 45.78 100.119 46V55.48C100.119 55.7 100.119 55.77 99.85 55.77H99.392C99.173 55.77 99.1033 55.7 99.1033 55.48V46Z" fill="#707C84"/>
<path d="M109.189 45.71C110.018 45.71 110.813 46.0408 111.399 46.6296C111.986 47.2185 112.315 48.0172 112.315 48.85C112.315 49.6827 111.986 50.4814 111.399 51.0703C110.813 51.6591 110.018 51.99 109.189 51.99H106.202V55.48C106.202 55.7 106.152 55.77 105.943 55.77H105.475C105.266 55.77 105.186 55.7 105.186 55.48V46C105.186 45.78 105.266 45.71 105.475 45.71H109.189ZM109.099 51C109.384 51 109.666 50.9436 109.93 50.834C110.193 50.7245 110.432 50.5639 110.634 50.3615C110.835 50.159 110.995 49.9187 111.104 49.6542C111.214 49.3897 111.27 49.1062 111.27 48.82C111.27 48.5337 111.214 48.2502 111.104 47.9857C110.995 47.7212 110.835 47.4809 110.634 47.2785C110.432 47.076 110.193 46.9155 109.93 46.8059C109.666 46.6963 109.384 46.64 109.099 46.64H106.112V51H109.099Z" fill="#707C84"/>
<path d="M120.091 45.5099C120.859 45.4247 121.635 45.5908 122.302 45.9836C122.969 46.3763 123.493 46.9747 123.794 47.6899C123.874 47.8499 123.794 47.98 123.635 48.06L123.197 48.2599C123.018 48.3299 122.948 48.32 122.839 48.13C122.613 47.5991 122.225 47.1541 121.731 46.8593C121.237 46.5645 120.663 46.4351 120.091 46.49C118.408 46.49 117.492 47.16 117.492 48.36C117.482 48.7267 117.605 49.0846 117.837 49.3676C118.07 49.6507 118.396 49.8397 118.757 49.9C119.292 50.0754 119.847 50.1829 120.409 50.22C121.09 50.2564 121.761 50.3946 122.401 50.63C122.891 50.7858 123.313 51.1065 123.596 51.5381C123.879 51.9696 124.005 52.4858 123.954 53C123.954 54.87 122.6 56 120.111 56C119.294 56.0938 118.471 55.9037 117.777 55.4616C117.083 55.0194 116.561 54.3518 116.297 53.57C116.28 53.5343 116.27 53.4952 116.27 53.4554C116.269 53.4157 116.277 53.3762 116.293 53.3399C116.309 53.3036 116.333 53.2713 116.363 53.2454C116.393 53.2195 116.429 53.2006 116.467 53.1899L116.905 53.03C116.939 53.0158 116.976 53.009 117.014 53.01C117.051 53.011 117.088 53.0198 117.121 53.0358C117.155 53.0517 117.185 53.0746 117.209 53.1029C117.234 53.1311 117.252 53.1642 117.263 53.2C117.486 53.7649 117.882 54.2439 118.394 54.5675C118.906 54.8912 119.507 55.0426 120.111 55C121.992 55 122.918 54.34 122.918 53C122.936 52.6477 122.828 52.3006 122.615 52.0205C122.402 51.7403 122.096 51.5453 121.753 51.47C121.238 51.3156 120.707 51.2216 120.17 51.1899L119.095 51.05C118.759 50.9782 118.426 50.8881 118.1 50.7799C117.777 50.682 117.476 50.5225 117.213 50.31C116.949 50.0697 116.741 49.7741 116.603 49.444C116.466 49.1139 116.402 48.7575 116.417 48.4C116.487 46.65 117.791 45.5099 120.091 45.5099Z" fill="#707C84"/>
<path d="M129.32 52.35C129.362 53.0571 129.672 53.7214 130.185 54.2071C130.699 54.6928 131.378 54.9633 132.083 54.9633C132.788 54.9633 133.467 54.6928 133.98 54.2071C134.494 53.7214 134.803 53.0571 134.846 52.35V46C134.846 45.78 134.915 45.71 135.134 45.71H135.592C135.811 45.71 135.881 45.78 135.881 46V52.34C135.881 54.61 134.547 55.98 132.088 55.98C129.629 55.98 128.295 54.61 128.295 52.34V46C128.295 45.78 128.364 45.71 128.573 45.71H129.041C129.25 45.71 129.32 45.78 129.32 46V52.35Z" fill="#707C84"/>
<path d="M149.621 45.71C149.84 45.71 149.909 45.78 149.909 46V55.48C149.909 55.7 149.84 55.77 149.621 55.77H149.203C148.993 55.77 148.924 55.7 148.924 55.48V49.71C148.924 48.8704 148.98 48.0318 149.093 47.2H149.033C148.722 47.9607 148.36 48.6991 147.948 49.41L145.807 53.2C145.781 53.2657 145.736 53.322 145.677 53.3612C145.619 53.4005 145.549 53.421 145.479 53.42H145.2C145.129 53.4203 145.058 53.3997 144.998 53.3606C144.938 53.3216 144.891 53.2657 144.862 53.2L142.691 49.37C142.306 48.6692 141.973 47.9405 141.696 47.19H141.636C141.738 48.0295 141.791 48.8743 141.795 49.72V55.48C141.795 55.7 141.725 55.77 141.506 55.77H141.118C140.899 55.77 140.829 55.7 140.829 55.48V46C140.829 45.78 140.899 45.71 141.118 45.71H141.477C141.558 45.7023 141.641 45.7203 141.712 45.7615C141.783 45.8027 141.84 45.865 141.875 45.94L145.359 52.16L148.824 46C148.934 45.79 148.993 45.76 149.212 45.76L149.621 45.71Z" fill="#707C84"/>
<path d="M35.7823 53.55V60.78C35.7823 61.0572 35.6727 61.323 35.4776 61.5189C35.2825 61.7149 35.0178 61.825 34.7419 61.825C34.466 61.825 34.2013 61.7149 34.0062 61.5189C33.8111 61.323 33.7015 61.0572 33.7015 60.78V53.56C33.9912 53.7725 34.3385 53.8911 34.6971 53.9C35.088 53.9112 35.471 53.7877 35.7823 53.55ZM44.6433 51.46C44.3792 51.46 44.126 51.5654 43.9393 51.7529C43.7525 51.9404 43.6476 52.1948 43.6476 52.46V53.72C43.6476 53.9972 43.7573 54.263 43.9524 54.4589C44.1475 54.6549 44.4121 54.765 44.6881 54.765C44.964 54.765 45.2286 54.6549 45.4237 54.4589C45.6189 54.263 45.7285 53.9972 45.7285 53.72V52.51C45.7362 52.3666 45.7131 52.2232 45.6608 52.0896C45.6084 51.956 45.528 51.8352 45.4251 51.7356C45.3221 51.636 45.199 51.5598 45.0641 51.5123C44.9292 51.4647 44.7856 51.4469 44.6433 51.46ZM31.4414 56.29C31.0832 56.2792 30.7364 56.1608 30.4458 55.95V63.2C30.4458 63.4785 30.556 63.7456 30.752 63.9425C30.9481 64.1394 31.214 64.25 31.4912 64.25C31.7685 64.25 32.0344 64.1394 32.2304 63.9425C32.4265 63.7456 32.5366 63.4785 32.5366 63.2V56C32.2115 56.2111 31.8279 56.3127 31.4414 56.29ZM41.3976 49.29C41.2627 49.2832 41.1279 49.3041 41.0013 49.3513C40.8747 49.3985 40.7589 49.4711 40.6612 49.5646C40.5634 49.6582 40.4855 49.7707 40.4324 49.8954C40.3793 50.0201 40.352 50.1544 40.3522 50.29V55.86C40.3522 56.1385 40.4623 56.4056 40.6584 56.6025C40.8544 56.7994 41.1203 56.91 41.3976 56.91C41.6748 56.91 41.9407 56.7994 42.1368 56.6025C42.3328 56.4056 42.443 56.1385 42.443 55.86V50.36C42.4509 50.2157 42.4276 50.0714 42.3747 49.937C42.3217 49.8026 42.2404 49.6813 42.1363 49.5815C42.0322 49.4817 41.9078 49.4057 41.7717 49.3589C41.6356 49.312 41.4909 49.2953 41.3478 49.31L41.3976 49.29ZM38.0921 51.43C37.7171 51.4274 37.3521 51.3087 37.0467 51.09V58.36C37.0467 58.6385 37.1569 58.9056 37.3529 59.1025C37.549 59.2994 37.8149 59.41 38.0921 59.41C38.3694 59.41 38.6353 59.2994 38.8313 59.1025C39.0274 58.9056 39.1375 58.6385 39.1375 58.36V51.1C38.8217 51.3363 38.4361 51.4595 38.0423 51.45L38.0921 51.43ZM29.1814 57V36.69C29.1788 36.4424 29.079 36.2059 28.9038 36.0318C28.7286 35.8577 28.492 35.76 28.2455 35.76H28.0265C27.78 35.76 27.5434 35.8577 27.3682 36.0318C27.193 36.2059 27.0932 36.4424 27.0906 36.69V57C27.0906 57.2493 27.1892 57.4884 27.3647 57.6647C27.5402 57.841 27.7783 57.94 28.0265 57.94H28.2455C28.4937 57.94 28.7318 57.841 28.9073 57.6647C29.0828 57.4884 29.1814 57.2493 29.1814 57ZM31.551 55.52H31.3319C31.0837 55.52 30.8457 55.421 30.6702 55.2447C30.4946 55.0684 30.396 54.8293 30.396 54.58V39.11C30.3987 38.8624 30.4984 38.6259 30.6736 38.4518C30.8489 38.2777 31.0854 38.18 31.3319 38.18H31.551C31.7974 38.18 32.034 38.2777 32.2092 38.4518C32.3844 38.6259 32.4842 38.8624 32.4868 39.11V54.6C32.4868 54.8493 32.3882 55.0884 32.2127 55.2647C32.0372 55.441 31.7992 55.54 31.551 55.54V55.52ZM34.8464 53.14H34.6174C34.3719 53.14 34.1364 53.042 33.9627 52.8676C33.7891 52.6932 33.6915 52.4567 33.6915 52.21V41.51C33.6902 41.387 33.7132 41.265 33.7591 41.151C33.8051 41.0371 33.8731 40.9333 33.9592 40.8459C34.0453 40.7585 34.1478 40.6891 34.2608 40.6417C34.3738 40.5944 34.495 40.57 34.6174 40.57H34.8464C35.0929 40.5726 35.3284 40.6728 35.5018 40.8488C35.6751 41.0248 35.7724 41.2624 35.7724 41.51V52.21C35.7724 52.4567 35.6748 52.6932 35.5012 52.8676C35.3275 53.042 35.092 53.14 34.8464 53.14ZM38.1419 50.69H37.9328C37.6863 50.69 37.4498 50.5924 37.2746 50.4182C37.0993 50.2441 36.9996 50.0076 36.997 49.76V44C36.9888 43.8716 37.0069 43.7429 37.0503 43.6218C37.0936 43.5008 37.1613 43.3899 37.249 43.2962C37.3368 43.2025 37.4427 43.1278 37.5603 43.0768C37.678 43.0259 37.8047 42.9997 37.9328 43H38.1519C38.4001 43 38.6381 43.099 38.8136 43.2753C38.9891 43.4516 39.0877 43.6907 39.0877 43.94V49.74C39.0891 49.8643 39.0658 49.9876 39.0194 50.1028C38.9729 50.218 38.9042 50.3228 38.8172 50.4112C38.7301 50.4995 38.6265 50.5697 38.5123 50.6175C38.3981 50.6654 38.2756 50.69 38.1519 50.69H38.1419ZM41.4473 48.54H41.2283C40.9801 48.54 40.7421 48.441 40.5665 48.2647C40.391 48.0884 40.2924 47.8493 40.2924 47.6V46.11C40.2951 45.8624 40.3948 45.6259 40.57 45.4518C40.7453 45.2777 40.9818 45.18 41.2283 45.18H41.4473C41.6938 45.18 41.9304 45.2777 42.1056 45.4518C42.2808 45.6259 42.3806 45.8624 42.3832 46.11V47.6C42.3832 47.8476 42.286 48.0852 42.1126 48.2612C41.9393 48.4372 41.7038 48.5374 41.4573 48.54H41.4473Z" fill="#707C84"/>
</svg>
