<svg width="177" height="100" viewBox="0 0 177 100" fill="none" xmlns="http://www.w3.org/2000/svg">
<path d="M88.3049 55.374H83.2073V41.686H88.3049V55.374ZM83.7051 54.874H87.807V42.186H83.7051V54.874ZM95.3977 55.374H90.4026V41.686H100.839C102.334 41.5644 103.823 41.986 105.034 42.874C105.556 43.3533 105.96 43.9472 106.216 44.6093C106.471 45.2714 106.571 45.9838 106.507 46.691C106.581 47.913 106.194 49.1182 105.423 50.066C104.51 51.118 102.99 51.66 100.907 51.679C100.383 51.693 96.451 51.679 95.4007 51.679L95.3977 55.374ZM90.8975 54.874H94.8999V51.174H95.1498C95.2005 51.174 100.305 51.19 100.896 51.174C102.836 51.157 104.231 50.674 105.046 49.731C105.733 48.8734 106.074 47.7881 106.002 46.69C106.063 46.0564 105.978 45.4171 105.754 44.8217C105.529 44.2264 105.171 43.691 104.708 43.257C103.584 42.4471 102.21 42.0669 100.832 42.185H90.9004L90.8975 54.874ZM99.7814 48.604H94.866V44.878H99.8143C100.165 44.8293 100.522 44.8704 100.853 44.9975C101.184 45.1246 101.477 45.3336 101.706 45.605C101.914 45.9519 102.011 46.354 101.987 46.758C102.005 47.1331 101.925 47.5065 101.753 47.84C101.517 48.1259 101.211 48.3459 100.866 48.479C100.521 48.6121 100.147 48.6538 99.7814 48.6V48.604ZM95.3638 48.104H99.7814C100.598 48.104 101.104 47.933 101.328 47.581C101.451 47.3251 101.507 47.0417 101.49 46.758C101.512 46.46 101.447 46.1621 101.305 45.9L101.299 45.891C101.062 45.541 100.591 45.378 99.8143 45.378H95.3638V48.104ZM115.592 55.576C111.122 55.576 108.453 54.461 107.437 52.168C107.27 51.7251 107.157 51.2638 107.1 50.794L107.056 50.506H112.375L112.41 50.716C112.451 50.9292 112.541 51.1299 112.673 51.302C112.883 51.557 113.584 51.985 115.91 51.985C118.705 51.985 118.705 51.492 118.705 51.227C118.705 50.78 118.382 50.627 116.102 50.383L115.669 50.342C114.81 50.261 113.725 50.158 113.229 50.115C109.048 49.735 107.181 48.43 107.181 45.885C107.181 43.212 110.358 41.485 115.275 41.485C119.287 41.485 121.871 42.547 122.956 44.644C123.213 45.1318 123.386 45.66 123.466 46.206L123.501 46.487H118.177L118.155 46.261C118.134 46.0844 118.059 45.9187 117.94 45.787C117.74 45.519 117.111 45.076 115.158 45.076C112.759 45.076 112.429 45.384 112.429 45.716C112.429 46.159 113.186 46.316 115.615 46.577C116.627 46.66 118.255 46.828 118.813 46.896C122.318 47.278 123.882 48.551 123.882 51.025C123.883 53.1 122.445 55.576 115.592 55.576ZM107.638 51.006C107.688 51.3358 107.774 51.659 107.894 51.97C108.82 54.059 111.339 55.076 115.592 55.076C119.148 55.076 123.389 54.376 123.389 51.025C123.389 48.832 122.005 47.746 118.76 47.393C118.202 47.325 116.585 47.158 115.574 47.074C112.985 46.792 111.933 46.642 111.933 45.716C111.933 44.758 113.067 44.576 115.16 44.576C116.814 44.576 117.882 44.876 118.335 45.481C118.458 45.63 118.552 45.8019 118.61 45.987H122.925C122.838 45.6002 122.701 45.2267 122.516 44.876C121.521 42.957 119.089 41.985 115.277 41.985C110.663 41.985 107.681 43.516 107.681 45.885C107.681 48.145 109.354 49.261 113.275 49.617C113.773 49.66 114.857 49.763 115.717 49.845L116.153 49.886C118.271 50.11 119.205 50.25 119.205 51.227C119.205 52.279 117.997 52.485 115.912 52.485C113.982 52.485 112.763 52.194 112.292 51.621C112.147 51.4383 112.038 51.2296 111.97 51.006H107.638ZM133.341 55.559C128.144 55.559 125.276 53.448 125.276 49.614V41.686H130.306V49.614C130.306 50.929 131.478 51.683 133.52 51.683C135.472 51.683 136.683 50.896 136.683 49.631V41.686H141.661V50.034C141.666 53.545 138.631 55.559 133.338 55.559H133.341ZM125.774 42.186V49.614C125.774 54.352 130.511 55.059 133.341 55.059C136.266 55.059 141.171 54.406 141.171 50.034V42.186H137.189V49.631C137.189 51.181 135.751 52.183 133.528 52.183C131.204 52.183 129.816 51.223 129.816 49.614V42.186H125.774ZM162.757 55.374H158.009V49.194L155.317 55.374H151.176L148.512 49.206V55.374H143.748V41.686H150.015L153.27 49.233L156.683 41.686H162.763L162.757 55.374ZM158.507 54.874H162.259V42.186H157L153.254 50.465L149.684 42.186H144.242V54.874H148.01V46.8L151.495 54.877H154.98L158.501 46.812L158.507 54.874ZM18.9706 41.936H14.4365V55.124H26.9655V51.613H18.9706V41.936ZM36.1172 41.636C30.3297 41.636 27.2861 44.391 27.2861 48.436C27.2861 53.006 30.481 55.324 36.1172 55.324C42.322 55.324 44.9315 52.636 44.9315 48.436C44.9315 44.171 41.9874 41.634 36.1172 41.634V41.636ZM36.1003 45.063C36.4943 45.0611 36.888 45.0842 37.2791 45.132L32.2104 50.223C31.9705 49.6781 31.8536 49.0866 31.8679 48.491C31.8679 46.422 32.9054 45.061 36.1003 45.061V45.063ZM36.1172 51.951C35.7376 51.9527 35.3583 51.9313 34.9812 51.887L40.0589 46.787C40.2898 47.3229 40.4003 47.9033 40.3825 48.487C40.3825 50.5 39.4267 51.949 36.1172 51.949V51.951ZM53.915 50.151H58.5815C58.5128 50.4763 58.3697 50.781 58.1633 51.041C57.1959 51.8326 55.9612 52.2178 54.7175 52.116C54.0915 52.1833 53.4584 52.1146 52.8611 51.9146C52.2638 51.7146 51.7163 51.3881 51.2557 50.957C50.7839 50.2619 50.5597 49.4271 50.6195 48.588C50.5432 47.7087 50.7869 46.8315 51.3055 46.119C51.9576 45.379 53.0618 45.06 54.6846 45.06C55.7172 44.9741 56.7485 45.2405 57.6118 45.816C57.8839 46.0331 58.0873 46.3249 58.1972 46.656H62.5252C62.4937 46.1105 62.3631 45.5753 62.1399 45.077C61.1034 42.96 58.694 41.7 54.597 41.7C51.0337 41.7 48.6422 42.792 47.321 44.439C46.4484 45.6283 46.0005 47.0784 46.0496 48.555C45.9931 50.0649 46.4295 51.5521 47.2921 52.79C48.5974 54.49 50.9222 55.326 53.7159 55.326C55.5733 55.4561 57.4179 54.9336 58.934 53.848L59.0514 55.124H62.6466V47.312H53.915V50.151ZM72.8508 41.633C67.0642 41.633 64.0196 44.388 64.0196 48.433C64.0196 53.003 67.2136 55.321 72.8508 55.321C79.0565 55.321 81.666 52.633 81.666 48.433C81.666 44.171 78.722 41.634 72.8508 41.634V41.633ZM72.8349 45.06C73.2185 45.0588 73.6018 45.0809 73.9828 45.126L68.934 50.2C68.7016 49.6611 68.5885 49.078 68.6025 48.491C68.5985 46.422 69.6399 45.061 72.8349 45.061V45.06ZM72.8508 51.948C72.4611 51.9496 72.0718 51.9269 71.6849 51.88L76.7795 46.762C77.0191 47.305 77.1338 47.8953 77.115 48.489C77.117 50.5 76.1652 51.949 72.8508 51.949V51.948Z" fill="#707C84"/>
</svg>
