<svg width="177" height="100" viewBox="0 0 177 100" fill="none" xmlns="http://www.w3.org/2000/svg">
<path d="M31.8012 62.825H57.339V37.175H31.8012V62.825ZM52.4236 47.5321H47.0273V42.112H52.4236V47.5321ZM36.7156 42.112H42.1149V52.468H52.4236V57.888H36.7156V42.112ZM73.9689 37.175C71.4434 37.175 68.9747 37.9272 66.8749 39.3365C64.775 40.7457 63.1384 42.7487 62.172 45.0921C61.2055 47.4356 60.9527 50.0143 61.4453 52.5021C61.938 54.9899 63.1542 57.2751 64.9399 59.0687C66.7257 60.8623 69.0009 62.0838 71.4778 62.5786C73.9547 63.0735 76.5221 62.8195 78.8553 61.8488C81.1885 60.8781 83.1827 59.2343 84.5858 57.1252C85.9889 55.0162 86.7377 52.5366 86.7377 50C86.7338 46.5999 85.3872 43.3401 82.9935 40.9358C80.5997 38.5315 77.3542 37.179 73.9689 37.175ZM73.9689 57.888C72.4156 57.888 70.8972 57.4254 69.6057 56.5587C68.3142 55.6919 67.3076 54.46 66.7132 53.0187C66.1188 51.5773 65.9633 49.9913 66.2663 48.4612C66.5693 46.9311 67.3173 45.5255 68.4156 44.4224C69.5139 43.3192 70.9133 42.568 72.4367 42.2636C73.9602 41.9593 75.5392 42.1155 76.9743 42.7125C78.4093 43.3095 79.6358 44.3205 80.4988 45.6177C81.3618 46.9149 81.8223 48.4399 81.8223 50C81.8192 52.0911 80.9908 54.0956 79.5186 55.5742C78.0465 57.0528 76.0508 57.8849 73.9689 57.888ZM132.431 37.175C129.905 37.1749 127.437 37.9269 125.337 39.336C123.237 40.7451 121.6 42.748 120.633 45.0914C119.667 47.4349 119.414 50.0136 119.906 52.5015C120.399 54.9893 121.615 57.2746 123.401 59.0683C125.186 60.862 127.462 62.0836 129.938 62.5785C132.415 63.0735 134.983 62.8196 137.316 61.8489C139.649 60.8782 141.644 59.2344 143.047 57.1253C144.45 55.0163 145.199 52.5366 145.199 50C145.195 46.6 143.848 43.3404 141.455 40.9361C139.061 38.5319 135.816 37.1793 132.431 37.175ZM132.431 57.888C130.878 57.8882 129.359 57.4258 128.067 56.5592C126.776 55.6925 125.769 54.4607 125.175 53.0193C124.58 51.578 124.424 49.992 124.727 48.4618C125.03 46.9316 125.778 45.526 126.876 44.4227C127.975 43.3195 129.374 42.5681 130.897 42.2637C132.421 41.9592 134 42.1154 135.435 42.7124C136.87 43.3094 138.097 44.3204 138.96 45.6176C139.823 46.9148 140.283 48.4399 140.283 50C140.28 52.0909 139.452 54.0953 137.98 55.5738C136.508 57.0524 134.513 57.8846 132.431 57.888ZM103.199 37.175C100.674 37.175 98.2052 37.9272 96.1054 39.3365C94.0056 40.7457 92.3689 42.7487 91.4025 45.0921C90.436 47.4356 90.1832 50.0143 90.6759 52.5021C91.1686 54.9899 92.3847 57.2751 94.1704 59.0687C95.9562 60.8623 98.2314 62.0838 100.708 62.5786C103.185 63.0735 105.753 62.8195 108.086 61.8488C110.419 60.8781 112.413 59.2343 113.816 57.1252C115.219 55.0162 115.968 52.5366 115.968 50C115.964 46.5999 114.618 43.3401 112.224 40.9358C109.83 38.5315 106.585 37.179 103.199 37.175ZM103.199 57.888C101.752 57.8888 100.333 57.4879 99.0984 56.7296C97.8637 55.9713 96.8617 54.8851 96.2029 53.5909C95.5441 52.2967 95.2542 50.8449 95.3651 49.3956C95.4759 47.9464 95.9834 46.5561 96.8313 45.3782C97.6793 44.2003 98.8348 43.2807 100.17 42.7208C101.506 42.1608 102.969 41.9825 104.399 42.2053C105.829 42.4281 107.17 43.0435 108.274 43.9835C109.378 44.9234 110.202 46.1515 110.655 47.5321H103.199V52.468H110.655C110.136 54.0434 109.137 55.4147 107.799 56.3876C106.46 57.3604 104.851 57.8854 103.199 57.888Z" fill="#707C84"/>
</svg>
